<svg width="19" height="19" viewBox="0 0 19 19" fill="none" xmlns="http://www.w3.org/2000/svg"><g clip-path="url(#a)" fill="#000" stroke="#000" stroke-width=".4" stroke-linejoin="round"><path d="M1.44 15.232h16.12a1.64 1.64 0 0 0 1.64-1.639V2.654c0-.904-.736-1.64-1.64-1.64H1.44c-.904 0-1.64.736-1.64 1.64v10.94a1.64 1.64 0 0 0 1.64 1.638zM.775 2.654c0-.365.298-.663.663-.663H17.56c.365 0 .663.298.663.663v10.94a.665.665 0 0 1-.663.663H1.439a.665.665 0 0 1-.663-.664V2.654zM5.83 17.985h7.34a.488.488 0 0 0 0-.976H5.83a.488.488 0 0 0 0 .976z"/><path d="M9.012 17.497a.488.488 0 0 0 .976 0v-2.752a.488.488 0 0 0-.976 0v2.752z"/></g><defs><clipPath id="a"><path fill="#fff" d="M0 0h19v19H0z"/></clipPath></defs></svg>