<svg width="21" height="21" viewBox="0 0 21 21" fill="none" xmlns="http://www.w3.org/2000/svg"><mask id="a" maskUnits="userSpaceOnUse" x="0" y=".005" width="21" height="21" fill="#000"><path fill="#fff" d="M0 .005h21v21H0z"/><path d="M19.242 6.802c-1.002-2.336-2.704-4.034-5.06-5.038a9.338 9.338 0 0 0-3.698-.759 9.241 9.241 0 0 0-3.687.759C4.46 2.765 2.75 4.463 1.747 6.802A9.245 9.245 0 0 0 1 10.49c0 1.288.245 2.526.748 3.698 1.003 2.34 2.713 4.047 5.049 5.049 1.176.504 2.4.758 3.687.758a9.342 9.342 0 0 0 3.699-.758c2.355-1.005 4.057-2.714 5.059-5.049A9.292 9.292 0 0 0 20 10.49a9.238 9.238 0 0 0-.758-3.688zm-1.517 7.885a8.334 8.334 0 0 1-3.054 3.043 8.182 8.182 0 0 1-4.186 1.122 8.044 8.044 0 0 1-3.242-.665c-1.028-.446-1.916-1.033-2.659-1.776-.743-.743-1.334-1.64-1.776-2.67a8.179 8.179 0 0 1-.655-3.251c0-1.507.37-2.9 1.112-4.176A8.339 8.339 0 0 1 6.309 3.27a8.119 8.119 0 0 1 4.175-1.122 8.18 8.18 0 0 1 4.187 1.122 8.36 8.36 0 0 1 3.054 3.044 8.12 8.12 0 0 1 1.122 4.176 8.2 8.2 0 0 1-1.122 4.197z"/><path d="M11.087 10.406v-5.38c0-.323-.28-.582-.603-.582a.586.586 0 0 0-.571.581v5.465c0 .01.02.052.02.083a.543.543 0 0 0 .157.467l3.106 3.106a.59.59 0 0 0 .8 0 .56.56 0 0 0 0-.81l-2.91-2.93z"/></mask><path d="M19.242 6.802c-1.002-2.336-2.704-4.034-5.06-5.038a9.338 9.338 0 0 0-3.698-.759 9.241 9.241 0 0 0-3.687.759C4.46 2.765 2.75 4.463 1.747 6.802A9.245 9.245 0 0 0 1 10.49c0 1.288.245 2.526.748 3.698 1.003 2.34 2.713 4.047 5.049 5.049 1.176.504 2.4.758 3.687.758a9.342 9.342 0 0 0 3.699-.758c2.355-1.005 4.057-2.714 5.059-5.049A9.292 9.292 0 0 0 20 10.49a9.238 9.238 0 0 0-.758-3.688zm-1.517 7.885a8.334 8.334 0 0 1-3.054 3.043 8.182 8.182 0 0 1-4.186 1.122 8.044 8.044 0 0 1-3.242-.665c-1.028-.446-1.916-1.033-2.659-1.776-.743-.743-1.334-1.64-1.776-2.67a8.179 8.179 0 0 1-.655-3.251c0-1.507.37-2.9 1.112-4.176A8.339 8.339 0 0 1 6.309 3.27a8.119 8.119 0 0 1 4.175-1.122 8.18 8.18 0 0 1 4.187 1.122 8.36 8.36 0 0 1 3.054 3.044 8.12 8.12 0 0 1 1.122 4.176 8.2 8.2 0 0 1-1.122 4.197z" fill="#000"/><path d="M11.087 10.406v-5.38c0-.323-.28-.582-.603-.582a.586.586 0 0 0-.571.581v5.465c0 .01.02.052.02.083a.543.543 0 0 0 .157.467l3.106 3.106a.59.59 0 0 0 .8 0 .56.56 0 0 0 0-.81l-2.91-2.93z" fill="#000"/><path d="M19.242 6.802l-.092.04.092-.04zm-5.06-5.038l.04-.092-.04.092zm-7.385 0l.04.092-.04-.092zm-5.05 5.038l.093.04-.092-.04zm0 7.386l-.091.04.092-.04zm5.05 5.049l-.04.091.04-.091zm7.386 0l.039.092-.04-.092zm5.059-5.049l.091.04-.091-.04zm-1.517.499l.086.05-.086-.05zm-3.054 3.043l-.05-.086.05.086zm-7.428.457l.04-.091-.04.091zm-2.659-1.776l-.07.07.07-.07zm-1.776-2.67l.092-.04-.092.04zm.457-7.427l.086.05-.086-.05zM6.309 3.27l.05.086-.05-.086zm8.362 0l-.05.086.05-.086zm3.054 3.044l-.086.05.086-.05zm-6.638 4.092h-.1v.042l.029.029.07-.07zm-1.153.167l.1.01v-.01h-.1zm.156.467l-.071.071.07-.07zm3.106 3.106l.07-.07-.07.07zm.8 0l-.071-.07.07.07zm0-.81l-.071.07.07-.07zm5.338-6.574c-1.012-2.359-2.734-4.076-5.112-5.09l-.079.184c2.332.994 4.015 2.674 5.007 4.985l.184-.079zm-5.112-5.09a9.438 9.438 0 0 0-3.738-.767v.2c1.275 0 2.495.254 3.66.75l.078-.183zM10.484.905a9.338 9.338 0 0 0-3.727.767l.08.184a9.141 9.141 0 0 1 3.647-.75v-.2zm-3.727.767c-2.359 1.011-4.087 2.727-5.1 5.09l.183.08c.993-2.316 2.684-3.995 4.996-4.986l-.079-.184zm-5.1 5.09A9.345 9.345 0 0 0 .9 10.49h.2c0-1.275.243-2.49.74-3.649l-.184-.079zM.9 10.49c0 1.3.248 2.552.756 3.737l.184-.079a9.196 9.196 0 0 1-.74-3.658H.9zm.756 3.737c1.014 2.363 2.742 4.09 5.101 5.101l.08-.183c-2.313-.992-4.004-2.68-4.997-4.996l-.184.078zm5.101 5.102a9.342 9.342 0 0 0 3.727.766v-.2a9.142 9.142 0 0 1-3.648-.75l-.079.184zm3.727.766a9.44 9.44 0 0 0 3.738-.766l-.079-.184a9.241 9.241 0 0 1-3.659.75v.2zm3.738-.766c2.379-1.015 4.1-2.743 5.112-5.102l-.184-.079c-.992 2.312-2.675 4.002-5.007 4.997l.079.184zm5.112-5.102a9.391 9.391 0 0 0 .766-3.737h-.2a9.19 9.19 0 0 1-.75 3.659l.184.078zm.766-3.737a9.339 9.339 0 0 0-.767-3.728l-.183.08a9.138 9.138 0 0 1 .75 3.648h.2zm-2.461 4.146a8.235 8.235 0 0 1-3.018 3.008l.1.173a8.435 8.435 0 0 0 3.09-3.08l-.172-.1zm-3.018 3.008a8.082 8.082 0 0 1-4.136 1.108v.2c1.523 0 2.942-.38 4.236-1.135l-.1-.173zm-4.136 1.108a7.945 7.945 0 0 1-3.202-.656l-.08.183a8.145 8.145 0 0 0 3.282.673v-.2zm-3.202-.656c-1.018-.442-1.895-1.023-2.628-1.756l-.142.142c.753.752 1.652 1.346 2.69 1.797l.08-.183zM4.655 16.34c-.733-.733-1.318-1.618-1.755-2.638l-.184.079c.446 1.04 1.045 1.948 1.797 2.7l.142-.14zM2.9 13.702a8.078 8.078 0 0 1-.647-3.212h-.2c0 1.145.216 2.251.663 3.29l.184-.078zm-.647-3.212a8.07 8.07 0 0 1 1.098-4.126l-.172-.1a8.267 8.267 0 0 0-1.126 4.226h.2zm1.098-4.126A8.239 8.239 0 0 1 6.36 3.356l-.1-.172a8.439 8.439 0 0 0-3.08 3.08l.172.1zM6.36 3.356a8.019 8.019 0 0 1 4.125-1.108v-.2a8.219 8.219 0 0 0-4.226 1.136l.101.172zm4.125-1.108c1.49 0 2.873.372 4.136 1.108l.101-.172a8.282 8.282 0 0 0-4.237-1.136v.2zm4.136 1.108a8.26 8.26 0 0 1 3.019 3.008l.172-.1a8.46 8.46 0 0 0-3.09-3.08l-.1.172zm3.019 3.008a8.02 8.02 0 0 1 1.108 4.126h.2a8.22 8.22 0 0 0-1.136-4.227l-.172.101zm1.108 4.126a8.095 8.095 0 0 1-1.108 4.146l.172.101a8.298 8.298 0 0 0 1.136-4.247h-.2zm-7.56-.084v-5.38h-.2v5.38h.2zm0-5.38c0-.382-.33-.682-.703-.682v.2a.5.5 0 0 1 .503.481h.2zm-.703-.682a.686.686 0 0 0-.671.681h.2c0-.266.225-.481.471-.481v-.2zm-.671.681v5.465h.2V5.025h-.2zm0 5.465c0 .014.003.026.004.03a.22.22 0 0 0 .012.035.17.17 0 0 1 .004.016v.002h.2a.21.21 0 0 0-.005-.048.398.398 0 0 0-.01-.033l-.004-.013-.003-.008v-.001.005l.002.015h-.2zm.021.072a.643.643 0 0 0 .185.549l.141-.141a.444.444 0 0 1-.127-.386l-.199-.022zm.185.549l3.106 3.106.142-.141-3.107-3.106-.141.141zm3.106 3.106c.126.126.3.185.47.185.17 0 .346-.06.471-.185l-.141-.141a.466.466 0 0 1-.33.126.466.466 0 0 1-.328-.126l-.142.141zm.941 0a.66.66 0 0 0 0-.951l-.141.14a.46.46 0 0 1 0 .67l.141.141zm0-.951l-2.908-2.93-.142.141 2.909 2.93.142-.141z" fill="#000" mask="url(#a)"/></svg>