<svg width="19" height="19" viewBox="0 0 19 19" fill="none" xmlns="http://www.w3.org/2000/svg"><g clip-path="url(#a)" fill="#000" stroke="#000" stroke-width=".03"><path d="M14.42 8.068V5.377H1.62v4.836a6.398 6.398 0 0 0 2.753 5.257H.022v.95a2.597 2.597 0 0 0 2.594 2.594h13.78a2.597 2.597 0 0 0 2.594-2.594v-.95h-7.323a6.45 6.45 0 0 0 1.908-2.08h1.6a2.657 2.657 0 0 0 2.525-1.82 2.632 2.632 0 0 0-.366-2.397 2.633 2.633 0 0 0-2.158-1.105h-.756zm.756 1.144a1.5 1.5 0 0 1 1.23.63c.289.4.364.898.208 1.367a1.515 1.515 0 0 1-1.438 1.037h-1.087c.215-.64.331-1.322.331-2.033v-1h.756zM2.764 10.214V6.52h10.512v3.692A5.262 5.262 0 0 1 8.02 15.47a5.262 5.262 0 0 1-5.256-5.257zm13.632 7.657H2.616a1.452 1.452 0 0 1-1.437-1.258h16.654a1.452 1.452 0 0 1-1.437 1.258zM5.084 4.129v.015h1.144v-.015c0-.1.01-.168.029-.229.02-.06.048-.114.088-.188.107-.198.254-.471.254-.96 0-.488-.147-.761-.254-.96a1.103 1.103 0 0 1-.088-.187.726.726 0 0 1-.03-.229.698.698 0 0 1 .118-.416c.107-.198.254-.472.254-.96v-.015H5.455V0c0 .1-.01.168-.029.229a1.13 1.13 0 0 1-.088.187 1.817 1.817 0 0 0-.254.96c0 .488.147.761.254.96.04.074.069.127.088.188.02.06.03.128.03.228a.7.7 0 0 1-.118.417 1.817 1.817 0 0 0-.254.96zm2.265 0v.015h1.144v-.015a.71.71 0 0 1 .117-.417c.107-.198.254-.471.254-.96 0-.488-.147-.761-.254-.96a1.104 1.104 0 0 1-.088-.187.726.726 0 0 1-.029-.229A.698.698 0 0 1 8.61.96c.107-.198.254-.472.254-.96v-.015H7.72V0c0 .1-.01.168-.029.229-.019.06-.048.114-.088.187a1.817 1.817 0 0 0-.254.96c0 .488.147.761.254.96.04.074.069.127.088.188.02.06.03.128.03.228a.7.7 0 0 1-.118.417 1.817 1.817 0 0 0-.254.96zM10.862 1.8c.107.198.253.468.253.952 0 .485-.146.755-.252.953-.08.147-.12.22-.12.424l.12-2.33zm0 0c-.079-.147-.119-.22-.119-.424m.12.424l-.12-.424m0 0c0-.203.04-.277.12-.423l-.12.423zM9.614 4.13v.015h1.144V4.13c0-.1.01-.168.03-.229.019-.06.048-.114.088-.188.107-.198.254-.471.254-.96 0-.488-.148-.76-.254-.959a1.096 1.096 0 0 1-.089-.188.727.727 0 0 1-.029-.229.698.698 0 0 1 .117-.416c.107-.198.255-.472.255-.96v-.015H9.986V0c0 .1-.01.168-.03.229-.019.06-.048.114-.087.187a1.817 1.817 0 0 0-.255.96c0 .489.148.762.255.96.04.074.068.127.088.188a.73.73 0 0 1 .029.228.7.7 0 0 1-.03.229c-.019.06-.048.114-.087.188a1.817 1.817 0 0 0-.255.96z"/></g><defs><clipPath id="a"><path fill="#fff" d="M0 0h19v19H0z"/></clipPath></defs></svg>