<svg width="19" height="19" viewBox="0 0 19 19" fill="none" xmlns="http://www.w3.org/2000/svg"><g clip-path="url(#a)" fill="#000" stroke="#fff" stroke-width=".3" stroke-linejoin="round"><path d="M3.195 9.025c3.475-3.48 9.134-3.48 12.61 0a.872.872 0 0 1 0 1.228.865.865 0 0 1-1.225 0c-2.8-2.8-7.356-2.8-10.156 0a.872.872 0 0 1-1.229 0 .872.872 0 0 1 0-1.228z"/><path d="M13.052 11.777a.867.867 0 0 1-1.225 1.225 3.29 3.29 0 0 0-4.654 0 .872.872 0 0 1-1.228 0 .872.872 0 0 1 0-1.228 5.026 5.026 0 0 1 7.107.004zm-2.347 3.549a1.205 1.205 0 1 1-2.41 0 1.205 1.205 0 0 1 2.41 0zM.403 6.229zm0 0a.872.872 0 0 0 0 1.228"/></g><defs><clipPath id="a"><path fill="#fff" d="M0 0h19v19H0z"/></clipPath></defs></svg>