<svg width="19" height="19" viewBox="0 0 19 19" fill="none" xmlns="http://www.w3.org/2000/svg"><g clip-path="url(#a)" fill="#000" stroke="#000" stroke-width=".2" stroke-linejoin="round"><path d="M16.58 4.01a.1.1 0 0 0 0 .124l.583.742a.1.1 0 0 0 .158 0l.282-.361.281-.361a1.935 1.935 0 0 0-.33-2.714L16.106.308a1.936 1.936 0 0 0-2.714.336l-.564.721a.1.1 0 0 0 .038.153l.862.386a.1.1 0 0 0 .12-.03l.425-.543a.82.82 0 0 1 1.146-.143l1.447 1.132a.818.818 0 0 1 .14 1.146l-.426.544zm-7.08.22a.1.1 0 0 0-.1.1v5.394H5.834a.1.1 0 0 0-.1.1v.92a.1.1 0 0 0 .1.1h3.64a.1.1 0 0 0 .028.004h.913a.1.1 0 0 0 .072-.031.1.1 0 0 0 .032-.073v-.92a.1.1 0 0 0-.004-.027V4.33a.1.1 0 0 0-.1-.1H9.5zM5.612.644A1.935 1.935 0 0 0 2.9.308L1.45 1.44a1.935 1.935 0 0 0-.33 2.714l.563.721a.1.1 0 0 0 .158 0l.583-.742a.1.1 0 0 0 0-.123L2 3.466a.818.818 0 0 1 .138-1.146l1.448-1.132a.82.82 0 0 1 1.146.143l.425.543a.1.1 0 0 0 .12.03l.861-.386a.1.1 0 0 0 .038-.153l-.282-.36-.282-.361z"/><path d="M3.599 19.07l1.91-1.901a8.312 8.312 0 0 0 3.99 1.014c1.417 0 2.75-.352 3.92-.974l1.87 1.862a.1.1 0 0 0 .14 0l.642-.64a.1.1 0 0 0 0-.14l-1.689-1.683A8.352 8.352 0 0 0 9.5 1.479 8.353 8.353 0 0 0 4.553 16.56l-1.737 1.73a.1.1 0 0 0 0 .14l.642.64a.1.1 0 0 0 .14 0zm13.136-9.239a7.236 7.236 0 1 1-14.471 0 7.236 7.236 0 0 1 14.471 0z"/></g><defs><clipPath id="a"><path fill="#fff" d="M0 0h19v19H0z"/></clipPath></defs></svg>