<svg width="21" height="19" viewBox="0 0 21 19" fill="none" xmlns="http://www.w3.org/2000/svg"><path d="M2.44 15.232h7.572v1.777H6.83a.488.488 0 0 0 0 .976h7.34a.488.488 0 0 0 0-.976h-3.182v-1.777h7.573a1.64 1.64 0 0 0 1.639-1.639V2.654c0-.904-.736-1.64-1.64-1.64H2.44c-.904 0-1.64.736-1.64 1.64v10.94a1.64 1.64 0 0 0 1.64 1.638zm8.057-.975H2.439a.665.665 0 0 1-.663-.664V2.654c0-.365.298-.663.663-.663h16.122c.365 0 .663.298.663.663v10.94a.665.665 0 0 1-.663.663h-8.064z" fill="#000" stroke="#000" stroke-width=".4" stroke-linejoin="round"/></svg>