<svg width="19" height="19" viewBox="0 0 19 19" fill="none" xmlns="http://www.w3.org/2000/svg"><path d="M16.773 0H2.227A2.23 2.23 0 0 0 0 2.227v14.546A2.23 2.23 0 0 0 2.227 19h14.546A2.23 2.23 0 0 0 19 16.773V2.227A2.23 2.23 0 0 0 16.773 0zm.743 16.773c0 .41-.333.743-.743.743H2.227a.743.743 0 0 1-.743-.743V2.227c0-.41.333-.743.743-.743h14.546c.41 0 .743.333.743.743v14.546z" fill="#000"/><path d="M10.613 3.71H5.418v11.58h1.484v-4.157h3.711a3.715 3.715 0 0 0 3.711-3.711 3.715 3.715 0 0 0-3.71-3.711zm0 5.938h-3.71V5.195h3.71a2.23 2.23 0 0 1 2.227 2.227 2.23 2.23 0 0 1-2.227 2.226z" fill="#000"/></svg>