<svg width="19" height="19" viewBox="0 0 19 19" fill="none" xmlns="http://www.w3.org/2000/svg"><g clip-path="url(#a)" fill="#000" stroke="#000" stroke-width=".1" stroke-linejoin="round"><path d="M10.362 11.22l4.585 4.585A8.3 8.3 0 0 1 9.5 17.837c-4.597 0-8.337-3.74-8.337-8.337a8.3 8.3 0 0 1 2.032-5.447L6.922 7.78H2.264a.05.05 0 0 0-.05.05v3.34c0 .027.022.05.05.05h8.098zm3.034-3.44H8.639L4.053 3.195A8.3 8.3 0 0 1 9.5 1.163c4.597 0 8.337 3.74 8.337 8.337a8.3 8.3 0 0 1-2.032 5.447l-3.727-3.727h1.319a.05.05 0 0 0 .05-.05V7.83a.05.05 0 0 0-.05-.05zM9.5-.05C4.241-.05-.05 4.242-.05 9.5c0 5.259 4.292 9.55 9.55 9.55 5.259 0 9.55-4.292 9.55-9.55 0-5.259-4.292-9.55-9.55-9.55zM8.135 8.993l1.014 1.014H7.88V8.993h.255zm2.73 1.014L9.85 8.993h2.382v1.014h-1.368zM3.427 8.993h3.24v1.014h-3.24V8.993z"/><path d="M14.51 7.78a.05.05 0 0 0-.05.05v3.34c0 .027.022.05.05.05h1.113a.05.05 0 0 0 .05-.05V7.83a.05.05 0 0 0-.05-.05H14.51zm-4.403-4.403a.05.05 0 0 0-.05-.05H8.943a.05.05 0 0 0-.05.05 2.279 2.279 0 0 0 2.277 2.277h2.226c.587 0 1.064.477 1.064 1.063 0 .027.022.05.05.05h1.113a.05.05 0 0 0 .05-.05 2.279 2.279 0 0 0-2.277-2.277H11.17a1.065 1.065 0 0 1-1.063-1.063z"/></g><defs><clipPath id="a"><path fill="#fff" d="M0 0h19v19H0z"/></clipPath></defs></svg>