<svg width="34" height="34" viewBox="0 0 34 34" fill="none" xmlns="http://www.w3.org/2000/svg"><path d="M31.699 1.12l-3.41 1.55c-.207.104-.413.207-.62.414L22.193 8.56 3.286 6.287c-.31 0-.723.103-.93.31L1.323 7.63c-.517.516-.413 1.55.31 1.86l13.535 6.095-3.926 3.926h-6.82c-.31 0-.62.104-.826.31l-.62.62c-.517.517-.413 1.55.31 1.86l5.786 2.48 2.48 5.786c.31.723 1.24.93 1.86.31l.62-.62c.206-.207.31-.517.31-.827v-6.819l3.925-3.926 6.096 13.638c.31.723 1.24.93 1.86.31l1.033-1.033c.206-.207.413-.62.31-.93l-2.273-19.01 5.476-5.477c.206-.206.31-.413.413-.62l1.55-3.41c.413-.722-.31-1.446-1.033-1.032z" stroke="#000" stroke-width="1.2" stroke-miterlimit="10" stroke-linecap="round"/></svg>