<svg width="34" height="30" viewBox="0 0 34 30" fill="none" xmlns="http://www.w3.org/2000/svg"><path d="M13.308 12c0-1.367 1.094-2.248 2.461-2.248 1.368 0 2.462.88 2.462 2.248m6.473 2.5v-1.83c0-.456.182-.821.456-1.186l1.458-1.367a.984.984 0 0 0 .274-.638V1.912c0-.547.456-.912.911-.912H29.9c.547 0 .912.456.912.912v7.475a.83.83 0 0 0 .273.639l1.46 1.367c.273.365.455.73.455 1.185V28.26a.913.913 0 0 1-.912.912" stroke="#000" stroke-width="1.2" stroke-miterlimit="10" stroke-linecap="round"/><path d="M15.313 11.94h1.003A14.28 14.28 0 0 1 30.63 26.254v.273H1v-.273A14.28 14.28 0 0 1 15.313 11.94zM1 29.262h29.538" stroke="#000" stroke-width="1.2" stroke-miterlimit="10" stroke-linecap="round"/></svg>