<svg width="34" height="32" viewBox="0 0 34 32" fill="none" xmlns="http://www.w3.org/2000/svg"><path d="M5.439 31.245a4.439 4.439 0 1 0 0-8.877 4.439 4.439 0 0 0 0 8.877zm11.561 0a4.439 4.439 0 1 0 0-8.877 4.439 4.439 0 0 0 0 8.877zm11.561 0a4.439 4.439 0 1 0 0-8.877 4.439 4.439 0 0 0 0 8.877zM11.22 20.51a4.439 4.439 0 1 0 0-8.878 4.439 4.439 0 0 0 0 8.878zm11.56 0a4.439 4.439 0 1 0 0-8.878 4.439 4.439 0 0 0 0 8.878zM17 9.877A4.439 4.439 0 1 0 17 1a4.439 4.439 0 0 0 0 8.877z" stroke="#000" stroke-width="1.2" stroke-miterlimit="10" stroke-linecap="round"/></svg>