<svg width="34" height="23" viewBox="0 0 34 23" fill="none" xmlns="http://www.w3.org/2000/svg"><path d="M31.968 21.439H2.032c-.62 0-1.032-.413-1.032-1.032V2.032C1 1.412 1.413 1 2.032 1h29.936C32.588 1 33 1.413 33 2.032v18.375c0 .619-.516 1.032-1.032 1.032z" stroke="#000" stroke-width="1.2" stroke-miterlimit="10" stroke-linecap="round"/><path d="M11.426 17.103c3.078 0 5.574-2.45 5.574-5.47 0-3.022-2.496-5.472-5.574-5.472-3.079 0-5.574 2.45-5.574 5.471 0 3.022 2.495 5.471 5.574 5.471z" stroke="#000" stroke-width="1.2" stroke-miterlimit="10" stroke-linecap="round"/><path d="M11.426 6.058V4.51m7.226 7.122h-1.549m-11.251 0H4.303m7.123 7.02v-1.549M7.503 7.71L6.368 6.677m10.219 0L15.452 7.71m-7.846 7.845L6.471 16.69m10.013-.103l-1.136-1.032" stroke="#000" stroke-width="1.2" stroke-miterlimit="10" stroke-linecap="round" stroke-linejoin="round"/><path d="M27.735 11.323a1.755 1.755 0 1 0 0-3.51 1.755 1.755 0 0 0 0 3.51z" stroke="#000" stroke-width="1.2" stroke-miterlimit="10" stroke-linecap="round"/><path d="M27.735 11.323v3.303" stroke="#000" stroke-width="1.2" stroke-miterlimit="10" stroke-linecap="round" stroke-linejoin="round"/></svg>