<svg width="44" height="26" viewBox="0 0 44 26" fill="none" xmlns="http://www.w3.org/2000/svg"><path d="M12.928 21.148H30.4m8 0h3.598c.5 0 1.002-.401 1.002-.902v-3.91c0-2.606-2.205-4.71-4.811-4.71H34.78l-4.31-4.21c-2.305-2.206-5.413-3.51-8.62-3.51h-7.82c-4.711 0-8.72 3.309-9.523 7.62H3.406C2.103 11.525 1 12.627 1 13.83v6.214c0 .502.4.902 1.002.902H4.9" stroke="#000" stroke-width="1.2" stroke-miterlimit="10" stroke-linecap="round"/><path d="M34.38 24.656c2.214 0 4.009-1.75 4.009-3.909s-1.795-3.91-4.01-3.91c-2.214 0-4.01 1.751-4.01 3.91 0 2.16 1.796 3.91 4.01 3.91zM4.91 20.747c0-2.105 1.804-3.91 4.009-3.91s4.01 1.705 4.01 3.91-1.805 3.91-4.01 3.91-4.01-1.705-4.01-3.91zm25.36-9.122H20.045c-.3 0-.5-.2-.5-.4V6.713c0-.2.2-.401.5-.401h2.306c2.205 0 4.31.802 5.713 2.205l2.607 2.506c.3.2.1.601-.401.601zm-22.554 0h8.72c.302 0 .502-.2.502-.4V6.713c0-.2-.2-.401-.501-.401l-2.105-.1c-3.609.1-6.616 2.505-6.616 5.412zm6.716-7.718V2.303c0-.702.601-1.303 1.303-1.303h6.917c.701 0 1.303.601 1.303 1.303v1.604" stroke="#000" stroke-width="1.2" stroke-miterlimit="10" stroke-linecap="round"/></svg>