<svg width="35" height="32" viewBox="0 0 35 32" fill="none" xmlns="http://www.w3.org/2000/svg"><g clip-path="url(#a)" stroke="#000" stroke-width="1.2" stroke-miterlimit="10" stroke-linecap="round"><path d="M13.2 5.7c1.5-3.1 3.8-5.2 4-5.2.1 0 2.356 2 3.956 5.2"/><path d="M17.3 21.2c-2.5 1.5-6.8-1.3-9.6-6.2S7.2 3.3 7.2 3.3s6.8 1.3 9.6 6.2c.1.2.2.4.3.5"/><path d="M26.8 14.9c-2.8 5-7.1 7.7-9.6 6.2s-2.3-6.8.4-11.7c2.7-4.9 9.6-6.2 9.6-6.2s2.3 6.8-.4 11.7zm-9.6 6.3v9.7m-7.5-5.5c3.9 1.5 6.6 4.5 7.4 5.4.1.1 0 .3-.1.4-1.2.2-5.1.7-9-.7C4 29 1.3 26 .6 25.1c-.1-.1 0-.3.1-.4 1.2-.2 5.1-.7 9 .7z"/><path d="M26.3 30.5c-3.9 1.5-7.8 1-9 .7-.2 0-.2-.2-.1-.4.8-1 3.5-3.9 7.4-5.4 3.9-1.5 7.8-1 9-.7.2 0 .2.2.1.4-.9.9-3.5 3.9-7.4 5.4z"/></g><defs><clipPath id="a"><path fill="#fff" d="M0 0h34.2v32H0z"/></clipPath></defs></svg>