<svg width="44" height="22" viewBox="0 0 44 22" fill="none" xmlns="http://www.w3.org/2000/svg"><path d="M19.607 1.384c2.004 2.405 7.214 9.719 16.631 11.923 6.813 1.603 6.913 3.306 6.713 5.31-.1.5-.5.901-1.002.901l-14.627 1.403c-.802 0-1.503-.2-2.205-.5-11.321-5.31-23.544-6.213-23.544-6.213-1.403-4.508.1-7.714 1.002-9.117.3-.5.901-.6 1.402-.4 1.102.6 4.91 1.202 8.517 1.202 5.31 0 4.909-1.503 4.909-3.307-.1-1.302 1.503-2.103 2.204-1.202z" stroke="#000" stroke-width="1.2" stroke-miterlimit="10" stroke-linecap="round" stroke-linejoin="round"/><path d="M1.072 14.71v5.61h11.922v-3.907m21.241-3.707s-2.706 2.504-5.51 8.015m.4-10.42s-1.703 4.408-6.813.802C17.202 7.496 9.788 15.31 9.788 15.31M21.51 3.689l-.7.801m2.504 1.202l-.701.802" stroke="#000" stroke-width="1.2" stroke-miterlimit="10" stroke-linecap="round" stroke-linejoin="round"/></svg>