<svg width="28" height="32" viewBox="0 0 28 32" fill="none" xmlns="http://www.w3.org/2000/svg"><g clip-path="url(#a)" stroke="#0D0E0F" stroke-width="1.2" stroke-linecap="round" stroke-linejoin="round"><path d="M15.233 25.293H3.066c-1.341 0-2.491-1.053-2.491-2.299V2.874c0-1.245 1.054-2.3 2.49-2.3h16.671V22.42"/><path d="M2.491 5.844v-2.49c0-.576.383-.959.958-.959h2.587M2.491 19.832v2.491c0 .575.383.958.958.958h2.587m15.425.959l-6.323-6.324a2.255 2.255 0 0 0-3.162 0 2.256 2.256 0 0 0 0 3.162l2.108 2.108a4.562 4.562 0 0 1 1.341 3.257 4.948 4.948 0 0 0 4.982 4.982h6.707v-9.102c0-3.161-1.246-6.227-3.545-8.527l-3.832-4.311M12.55 21.557l3.067-2.97M9.982 15.06a4.982 4.982 0 1 0 0-9.964 4.982 4.982 0 0 0 0 9.964z"/><path d="M9.982 15.06c1.376 0 2.491-2.23 2.491-4.982 0-2.752-1.115-4.982-2.491-4.982-1.376 0-2.491 2.23-2.491 4.982 0 2.751 1.115 4.982 2.491 4.982zM5 10.078h9.964M9.982 6v9"/></g><defs><clipPath id="a"><path fill="#fff" d="M0 0h27.784v32H0z"/></clipPath></defs></svg>