<svg width="31" height="34" viewBox="0 0 31 34" fill="none" xmlns="http://www.w3.org/2000/svg"><path d="M15.508 14.17c3.58 0 6.482-2.948 6.482-6.585S19.088 1 15.508 1 9.026 3.948 9.026 7.585s2.902 6.585 6.482 6.585zM28.267 33H2.955A1.954 1.954 0 0 1 1 31.045v-.103c0-8.128 6.585-14.61 14.61-14.61 8.13 0 14.612 6.584 14.612 14.61v.103c0 1.029-.926 1.955-1.955 1.955z" stroke="#000" stroke-width="1.2" stroke-miterlimit="10" stroke-linecap="round" stroke-linejoin="round"/><path d="M13.862 16.64v3.19h2.778" stroke="#000" stroke-width="1.2" stroke-miterlimit="10" stroke-linecap="round" stroke-linejoin="round"/><path d="M16.537 19.83h1.029v-3.19m-1.029 3.19l1.646 8.025-2.47 2.47-2.469-2.47 1.75-8.025" stroke="#000" stroke-width="1.2" stroke-miterlimit="10" stroke-linecap="round" stroke-linejoin="round"/></svg>