<svg width="37" height="34" viewBox="0 0 37 34" fill="none" xmlns="http://www.w3.org/2000/svg"><path d="M12.045 7.813a3.406 3.406 0 1 0 0-6.813 3.406 3.406 0 0 0 0 6.813zm19.51 16.929a3.406 3.406 0 1 0 0-6.813 3.406 3.406 0 0 0 0 6.813zm-18.581-2.168l1.136-6.193c.103-.413.516-.413.722-.104l1.652 2.994c.516.929 1.651 1.239 2.477.723.93-.517 1.136-1.652.723-2.478l-3.716-6.4A2.516 2.516 0 0 0 13.8 9.877h-3.51c-1.238 0-2.167.826-2.477 2.065L6 23" stroke="#000" stroke-width="1.2" stroke-miterlimit="10" stroke-linecap="round" stroke-linejoin="round"/><path d="M32.69 26.703l-3.406 1.962c-.207.103-.413 0-.516-.104l-3.097-5.367-.103-.207c-.516-.826-1.342-1.342-2.375-1.239l-2.477.207L2.136 23.4c-.62 0-1.136.62-1.136 1.239v1.858c0 .722.516 1.238 1.239 1.238h21.884l1.754 2.994.62 1.032c.722 1.239 2.168 1.549 3.406.93l1.033-.62 3.716-2.168c.825-.516 1.135-1.651.619-2.477-.516-.93-1.652-1.239-2.58-.723zM1 30.832h21.884" stroke="#000" stroke-width="1.2" stroke-miterlimit="10" stroke-linecap="round" stroke-linejoin="round"/></svg>