<svg width="27" height="34" viewBox="0 0 27 34" fill="none" xmlns="http://www.w3.org/2000/svg"><path d="M20.756 33H2.029C1.412 33 1 32.588 1 31.971V6.351c0-.618.412-1.03 1.029-1.03h18.727c.617 0 1.029.412 1.029 1.03v25.62c0 .515-.412 1.029-1.03 1.029z" stroke="#000" stroke-width="1.2" stroke-miterlimit="10" stroke-linecap="round" stroke-linejoin="round"/><path d="M5.219 5.219V1.926c0-.514.411-.926.926-.926H25.18c.515 0 .926.412.926.926v25.93a.922.922 0 0 1-.926.925h-3.293" stroke="#000" stroke-width="1.2" stroke-miterlimit="10" stroke-linecap="round" stroke-linejoin="round"/><path d="M19.315 21.476h-6.79v6.79h6.79v-6.79zm-6.791-11.421h6.791m-6.791 2.263h6.791m-6.791 2.264h6.791m-6.791 2.264h6.791m-9.055-6.791H3.47v6.79h6.79v-6.79zM3.47 21.476h6.79M3.47 23.74h6.79m-6.79 2.263h6.79m-6.79 2.264h6.79" stroke="#000" stroke-width="1.2" stroke-miterlimit="10" stroke-linecap="round" stroke-linejoin="round"/></svg>