<svg width="33" height="34" viewBox="0 0 33 34" fill="none" xmlns="http://www.w3.org/2000/svg"><path d="M16.223 18.294v12.117c0 1.45 1.14 2.589 2.693 2.589h.518c1.45 0 2.692-1.14 2.692-2.589m9.374-13.67C31.086 8.767 24.301 2.45 16.223 2.45 8.146 2.45 1.414 8.767 1 16.74M16.223 2.45V1M1 16.741c2.485 0 2.485 1.553 5.074 1.553 2.486 0 2.486-1.553 5.075-1.553 2.485 0 2.485 1.553 5.074 1.553 2.486 0 2.486-1.553 5.075-1.553 2.485 0 2.485 1.553 5.074 1.553 2.486 0 2.486-1.553 5.075-1.553" stroke="#000" stroke-width="1.2" stroke-miterlimit="10" stroke-linecap="round" stroke-linejoin="round"/></svg>