<svg width="34" height="25" viewBox="0 0 34 25" fill="none" xmlns="http://www.w3.org/2000/svg"><path d="M26.143 23.583H2.829A1.834 1.834 0 0 1 1 21.754V7.857c0-1.006.823-1.828 1.829-1.828h23.314c1.006 0 1.828.822 1.828 1.828v13.806c0 1.097-.822 1.92-1.828 1.92z" stroke="#000" stroke-width="1.2" stroke-miterlimit="10" stroke-linecap="round"/><path d="M6.12 5.937V2.463C6.12 1.64 6.76 1 7.583 1h23.954C32.36 1 33 1.64 33 2.463V17c0 .823-.64 1.463-1.463 1.463H28.3" stroke="#000" stroke-width="1.2" stroke-miterlimit="10" stroke-linecap="round"/><path d="M4.017 19.194h3.657m2.103 0h3.657m2.103 0h3.657m2.103 0h3.749M8.314 16.543H4.931c-.548 0-.914-.366-.914-.914V14.44c0-.549.366-.914.914-.914h3.383c.549 0 .915.365.915.914v1.189c0 .457-.458.914-.915.914z" stroke="#000" stroke-width="1.2" stroke-miterlimit="10" stroke-linecap="round" stroke-linejoin="round"/><path d="M32.909 13.983H27.97" stroke="#000" stroke-width="1.2" stroke-miterlimit="10" stroke-linecap="round"/></svg>