<svg width="24" height="34" viewBox="0 0 24 34" fill="none" xmlns="http://www.w3.org/2000/svg"><path d="M20.776 15.993c-1.133-1.34-1.34-3.092-.927-4.741.31-1.03.412-2.268.206-3.504-.515-3.505-3.401-6.288-6.906-6.7C8.305.533 4.285 4.243 4.285 8.984c0 .825.103 1.546.31 2.268.515 1.65.205 3.504-.928 4.844-1.959 2.268-2.99 5.257-2.577 8.555.412 3.505 2.577 6.597 5.566 8.349h11.132c3.298-1.958 5.565-5.566 5.565-9.689.103-2.783-.927-5.36-2.577-7.318zm-8.451-2.473c-2.474 0-4.535-2.062-4.535-4.536 0-1.03.309-1.958.927-2.783 1.443 0 2.783-.721 3.505-1.752.824 1.03 2.061 1.752 3.504 1.752.618.722.928 1.753.928 2.783.103 2.474-1.856 4.536-4.33 4.536z" stroke="#000" stroke-width="1.2" stroke-miterlimit="10" stroke-linecap="round"/></svg>