<svg width="30" height="22" viewBox="0 0 30 22" fill="none" xmlns="http://www.w3.org/2000/svg"><path d="M15.09 21.864a1.084 1.084 0 1 0 0-2.167 1.084 1.084 0 0 0 0 2.168z" fill="#000"/><path d="M8.587 16.716c1.626-1.716 3.974-2.89 6.594-2.89 2.438 0 4.696.993 6.322 2.62M4.794 11.929c2.619-2.71 6.322-4.426 10.387-4.426 3.974 0 7.496 1.626 10.116 4.155M1 7.142C4.523 3.348 9.58 1 15.18 1 20.6 1 25.478 3.258 29 6.78" stroke="#000" stroke-width="1.2" stroke-miterlimit="10" stroke-linecap="round" stroke-linejoin="round"/></svg>