<svg width="40" height="34" viewBox="0 0 40 34" fill="none" xmlns="http://www.w3.org/2000/svg"><path d="M12.355 33c6.27 0 11.355-5.13 11.355-11.458s-5.084-11.458-11.355-11.458C6.084 10.084 1 15.214 1 21.542S6.084 33 12.355 33z" stroke="#000" stroke-width="1.2" stroke-miterlimit="10" stroke-linecap="round"/><path d="M16.484 11.013C17.206 5.335 21.954 1 27.735 1 34.032 1 39.09 6.161 39.09 12.458c0 6.297-5.058 11.458-11.355 11.458-1.445 0-2.787-.31-4.025-.723" stroke="#000" stroke-width="1.2" stroke-miterlimit="10" stroke-linecap="round"/><path d="M12.148 16.38c1.24 0 2.168.31 2.684.826.516.517.826 1.24.826 2.065 0 .826-.206 1.445-.723 1.961-.619.62-1.445.826-2.477.826h-1.032V23.4h2.477v.826h-2.477V26.6H10.29v-2.374H9.155V23.4h1.135v-1.342H9.155v-1.032h1.135V16.38h1.858zm-.722 1.033v3.716h.929c.722 0 1.342-.206 1.755-.62.31-.309.413-.722.413-1.341 0-.516-.104-.93-.413-1.136-.413-.413-1.033-.62-1.858-.62h-.826zm15.897.516v-1.342c-.826 0-1.549-.206-2.065-.62l.31-.928c.516.31 1.135.62 1.961.62.93 0 1.548-.517 1.548-1.343 0-.723-.516-1.239-1.548-1.652-1.342-.516-2.168-1.135-2.168-2.374 0-1.135.826-1.961 2.065-2.167V6.78h.826v1.342c.825 0 1.341.206 1.754.516l-.31.929c-.309-.207-.825-.413-1.65-.413-1.033 0-1.446.62-1.446 1.135 0 .723.516 1.033 1.652 1.549 1.341.516 2.064 1.238 2.064 2.477 0 1.032-.723 2.065-2.168 2.271v1.445h-.825v-.103z" fill="#000"/></svg>