<svg width="40" height="34" viewBox="0 0 40 34" fill="none" xmlns="http://www.w3.org/2000/svg"><path d="M20.097 14.626l-7.845 5.058-4.646-5.058L1 28.046 10.394 33l9.703-4.955L29.49 33" stroke="#000" stroke-width="1.2" stroke-miterlimit="10" stroke-linecap="round" stroke-linejoin="round"/><path d="M29.078 18.239l-1.446 1.445-7.535-5.058v13.42" stroke="#000" stroke-width="1.2" stroke-miterlimit="10" stroke-linecap="round" stroke-linejoin="round"/><path d="M31.555 1a5.331 5.331 0 0 0-5.368 5.368c0 2.27 3.097 7.948 4.542 10.632.31.62 1.239.62 1.652 0 1.445-2.684 4.542-8.361 4.542-10.632C36.819 3.374 34.445 1 31.555 1zm0 8.671c-1.445 0-2.684-1.239-2.684-2.684s1.239-2.684 2.684-2.684 2.684 1.239 2.684 2.684S33 9.671 31.555 9.671z" stroke="#000" stroke-width="1.2" stroke-miterlimit="10" stroke-linecap="round"/><path d="M34.032 18.136l4.955 9.91L29.49 33l-1.858-13.316m-15.38 0L10.394 33" stroke="#000" stroke-width="1.2" stroke-miterlimit="10" stroke-linecap="round" stroke-linejoin="round"/></svg>