<svg width="24" height="39" viewBox="0 0 24 39" fill="none" xmlns="http://www.w3.org/2000/svg"><g clip-path="url(#a)"><path d="M6.982.1v3.89h-.798V2.294H4.788V3.89H3.99V.1h.798v1.496h1.496V.1h.698zm2.294 3.89c-.299 0-.598-.1-.897-.3-.3-.1-.5-.398-.599-.698a1.68 1.68 0 0 1-.3-.997c0-.4.1-.698.2-.998.2-.299.4-.498.599-.698C8.678.1 8.977 0 9.276 0c.3 0 .599.1.898.3.3.199.499.398.598.697.2.3.2.599.2.998s0 .698-.1.997c-.2.3-.399.499-.598.699-.3.199-.599.299-.998.299zm0-.798c.2 0 .4-.1.499-.2.2 0 .3-.2.399-.399.1-.2.1-.399.1-.598 0-.2 0-.499-.1-.599-.1-.2-.2-.399-.4-.498-.099-.1-.298-.1-.498-.1s-.299 0-.498.1c-.1.1-.3.299-.4.498 0 .1-.1.4-.1.599 0 .2 0 .499.1.598.1.2.3.4.4.5.199.099.299.099.498.099zM12.268.798h-.997V.1h2.793v.698h-.998V3.89h-.798V.798zm4.688 2.394v.698h-2.493V.1h2.493v.698h-1.695v.798h1.496v.698h-1.496v.898h1.695zM17.555.1h.798v3.092h1.596v.698h-2.394V.1z" fill="#0D0E0F"/><path d="M.598 38.401V7.581H23.34V38.3H6.982l-6.384.1z" stroke="#0D0E0F" stroke-width="1.2" stroke-linecap="round" stroke-linejoin="round"/><path d="M6.483 11.47H3.491v3.99h2.992v-3.99zm6.983 0h-2.993v3.99h2.992v-3.99zm6.982 0h-2.993v3.99h2.993v-3.99zM6.483 20.448H3.491v3.99h2.992v-3.99zm6.983 0h-2.993v3.99h2.992v-3.99zm6.982 0h-2.993v3.99h2.993v-3.99zm-6.982 8.976h-2.993v5.985h2.992v-5.985zm6.982 0h-2.993v3.99h2.993v-3.99zm-13.965 0H3.491v3.99h2.992v-3.99z" stroke="#0D0E0F" stroke-linecap="round" stroke-linejoin="round"/></g><defs><clipPath id="a"><path fill="#fff" d="M0 0h23.939v39H0z"/></clipPath></defs></svg>